<svg width="6" height="8" viewBox="0 0 6 8" fill="none" xmlns="http://www.w3.org/2000/svg">
<path d="M5.89291 2.437L3.33339 0.119059C3.29213 0.0817164 3.24095 0.0517416 3.18337 0.0311909C3.12578 0.0106402 3.06314 0 2.99976 0C2.93637 0 2.87374 0.0106402 2.81615 0.0311909C2.75856 0.0517416 2.70739 0.0817164 2.66613 0.119059L0.106607 2.437C-0.137663 2.65825 0.0648579 3 0.440235 3H5.56001C5.93539 3 6.13791 2.65825 5.89291 2.437Z" fill="#3182CE"/>
<path d="M0.10709 5.563L2.66661 7.88094C2.70787 7.91828 2.75905 7.94826 2.81663 7.96881C2.87422 7.98936 2.93686 8 3.00024 8C3.06363 8 3.12626 7.98936 3.18385 7.96881C3.24144 7.94826 3.29261 7.91828 3.33387 7.88094L5.89339 5.563C6.13766 5.34175 5.93514 5 5.55976 5L0.439985 5C0.0646081 5 -0.137912 5.34175 0.10709 5.563Z" fill="#A0AEC0"/>
</svg>
