<svg width="16" height="16" viewBox="0 0 16 16" fill="none" xmlns="http://www.w3.org/2000/svg">
<path d="M13.6296 12.5958L10.873 9.83929C11.5367 8.9558 11.895 7.88041 11.8937 6.77542C11.8937 3.95297 9.59746 1.65668 6.775 1.65668C3.95254 1.65668 1.65625 3.95297 1.65625 6.77542C1.65625 9.59788 3.95254 11.8942 6.775 11.8942C7.87998 11.8954 8.95537 11.5371 9.83886 10.8735L12.5954 13.63C12.7349 13.7547 12.9169 13.8213 13.104 13.8161C13.2911 13.8109 13.4691 13.7342 13.6014 13.6019C13.7338 13.4695 13.8104 13.2915 13.8157 13.1044C13.8209 12.9174 13.7543 12.7354 13.6296 12.5958ZM3.11875 6.77542C3.11875 6.05229 3.33318 5.34539 3.73494 4.74412C4.13669 4.14286 4.70772 3.67422 5.37581 3.39749C6.0439 3.12076 6.77905 3.04835 7.4883 3.18943C8.19754 3.33051 8.84902 3.67873 9.36036 4.19007C9.87169 4.7014 10.2199 5.35288 10.361 6.06213C10.5021 6.77137 10.4297 7.50652 10.1529 8.17461C9.8762 8.8427 9.40757 9.41373 8.8063 9.81548C8.20503 10.2172 7.49814 10.4317 6.775 10.4317C5.80566 10.4305 4.87635 10.0449 4.19092 9.3595C3.5055 8.67407 3.11991 7.74477 3.11875 6.77542Z" fill="#2D3748"/>
</svg>
