<svg width="15" height="15" viewBox="0 0 15 15" fill="none" xmlns="http://www.w3.org/2000/svg">
<path d="M12.1875 2.34317H2.8125C2.03585 2.34317 1.40625 2.97277 1.40625 3.74942V12.1869C1.40625 12.9636 2.03585 13.5932 2.8125 13.5932H12.1875C12.9641 13.5932 13.5937 12.9636 13.5937 12.1869V3.74942C13.5937 2.97277 12.9641 2.34317 12.1875 2.34317Z" fill="white" stroke="#2D3748" stroke-width="0.75" stroke-linejoin="round"/>
<path d="M11.6549 2.34317H3.34512C2.27607 2.34317 1.40625 3.22647 1.40625 4.31192V6.09317H1.875C1.875 5.62442 2.34375 5.15567 2.8125 5.15567H12.1875C12.6562 5.15567 13.125 5.62442 13.125 6.09317H13.5937V4.31192C13.5937 3.22647 12.7239 2.34317 11.6549 2.34317Z" fill="#2D3748"/>
<path d="M8.67181 7.49939C9.06014 7.49939 9.37494 7.18459 9.37494 6.79626C9.37494 6.40794 9.06014 6.09314 8.67181 6.09314C8.28349 6.09314 7.96869 6.40794 7.96869 6.79626C7.96869 7.18459 8.28349 7.49939 8.67181 7.49939Z" fill="#2D3748"/>
<path d="M11.0156 7.49939C11.4039 7.49939 11.7187 7.18459 11.7187 6.79626C11.7187 6.40794 11.4039 6.09314 11.0156 6.09314C10.6272 6.09314 10.3124 6.40794 10.3124 6.79626C10.3124 7.18459 10.6272 7.49939 11.0156 7.49939Z" fill="#2D3748"/>
<path d="M8.67181 9.8427C9.06014 9.8427 9.37494 9.5279 9.37494 9.13958C9.37494 8.75125 9.06014 8.43645 8.67181 8.43645C8.28349 8.43645 7.96869 8.75125 7.96869 9.13958C7.96869 9.5279 8.28349 9.8427 8.67181 9.8427Z" fill="#2D3748"/>
<path d="M11.0156 9.8427C11.4039 9.8427 11.7187 9.5279 11.7187 9.13958C11.7187 8.75125 11.4039 8.43645 11.0156 8.43645C10.6272 8.43645 10.3124 8.75125 10.3124 9.13958C10.3124 9.5279 10.6272 9.8427 11.0156 9.8427Z" fill="#2D3748"/>
<path d="M3.98431 9.8427C4.37264 9.8427 4.68744 9.5279 4.68744 9.13958C4.68744 8.75125 4.37264 8.43645 3.98431 8.43645C3.59599 8.43645 3.28119 8.75125 3.28119 9.13958C3.28119 9.5279 3.59599 9.8427 3.98431 9.8427Z" fill="#2D3748"/>
<path d="M6.32806 9.8427C6.71639 9.8427 7.03119 9.5279 7.03119 9.13958C7.03119 8.75125 6.71639 8.43645 6.32806 8.43645C5.93974 8.43645 5.62494 8.75125 5.62494 9.13958C5.62494 9.5279 5.93974 9.8427 6.32806 9.8427Z" fill="#2D3748"/>
<path d="M3.98431 12.1869C4.37264 12.1869 4.68744 11.8721 4.68744 11.4838C4.68744 11.0955 4.37264 10.7807 3.98431 10.7807C3.59599 10.7807 3.28119 11.0955 3.28119 11.4838C3.28119 11.8721 3.59599 12.1869 3.98431 12.1869Z" fill="#2D3748"/>
<path d="M6.32806 12.1869C6.71639 12.1869 7.03119 11.8721 7.03119 11.4838C7.03119 11.0955 6.71639 10.7807 6.32806 10.7807C5.93974 10.7807 5.62494 11.0955 5.62494 11.4838C5.62494 11.8721 5.93974 12.1869 6.32806 12.1869Z" fill="#2D3748"/>
<path d="M8.67181 12.1869C9.06014 12.1869 9.37494 11.8721 9.37494 11.4838C9.37494 11.0955 9.06014 10.7807 8.67181 10.7807C8.28349 10.7807 7.96869 11.0955 7.96869 11.4838C7.96869 11.8721 8.28349 12.1869 8.67181 12.1869Z" fill="#2D3748"/>
<path d="M3.74988 1.4056V2.3431" stroke="#2D3748" stroke-width="0.75" stroke-linecap="round" stroke-linejoin="round"/>
<path d="M11.2499 1.4056V2.3431" stroke="#2D3748" stroke-width="0.75" stroke-linecap="round" stroke-linejoin="round"/>
</svg>
