<svg width="15" height="16" viewBox="0 0 15 16" fill="none" xmlns="http://www.w3.org/2000/svg">
<path d="M7.39108 1.90605C4.07984 1.90605 1.38586 4.63974 1.38586 7.9998C1.38586 11.3599 4.07984 14.0935 7.39108 14.0935C10.7023 14.0935 13.3963 11.3599 13.3963 7.9998C13.3963 4.63974 10.7023 1.90605 7.39108 1.90605ZM10.5164 5.95752L6.63609 10.645C6.59353 10.6965 6.54057 10.738 6.48079 10.7669C6.42102 10.7957 6.35583 10.8112 6.28964 10.8123H6.28184C6.2171 10.8123 6.15308 10.7984 6.09394 10.7717C6.0348 10.7449 5.98186 10.7059 5.93856 10.657L4.27558 8.78203C4.23335 8.73657 4.2005 8.68301 4.17895 8.62449C4.15741 8.56596 4.14761 8.50366 4.15014 8.44124C4.15266 8.37882 4.16746 8.31754 4.19366 8.26101C4.21985 8.20447 4.25692 8.15382 4.30269 8.11203C4.34845 8.07024 4.40198 8.03816 4.46014 8.01766C4.5183 7.99716 4.5799 7.98867 4.64134 7.99268C4.70278 7.99669 4.76281 8.01312 4.8179 8.04101C4.87299 8.0689 4.92203 8.10768 4.96214 8.15507L6.26972 9.62929L9.80904 5.35459C9.88843 5.26145 10.0008 5.20375 10.1217 5.19397C10.2427 5.18418 10.3626 5.2231 10.4555 5.30231C10.5485 5.38152 10.6069 5.49465 10.6183 5.61726C10.6297 5.73986 10.5931 5.86209 10.5164 5.95752Z" fill="#68D391"/>
</svg>
